<?xml version="1.0" encoding="UTF-8"?>
<svg id="Remake" xmlns="http://www.w3.org/2000/svg" viewBox="0 0 800 800">
  <defs>
    <style>
      .cls-1 {
        fill: #faaf3f;
      }

      .cls-2 {
        fill: #fcfcfc;
      }

      .cls-3 {
        fill: #0082d0;
      }

      .cls-4 {
        fill: #00baf1;
      }

      .cls-5 {
        fill: #031735;
      }

      .cls-6 {
        fill: #0ca6e9;
      }

      .cls-7 {
        fill: #d17d00;
      }
    </style>
  </defs>
  <g id="Brainy">
    <path id="Silouette" class="cls-5" d="M666,465.99c-1.1-3.67-4.41-5.56-6.38-9.11-8.14-14.65-5.01-38.39,5.84-50.95,1-1.16,3.35-1.91,3.45-2.09.3-.52-1.99-9.16-1.98-11.35.11-32.98,37.74-40.93,63.77-32.69,56.2,17.79,61.4,90.27,30.74,133.13-36.87,51.53-110.42,56.16-156.42,14.07-14.08,35.82-52.27,59.53-91.01,52l7,54c23.51-3.41,55.03,4.99,74.32,19.16,16.03,11.77,28.4,34.56,12.21,51.87-23.93,25.58-99.86,14.66-129.22,2.14-33.29-14.19-23.82-27.86-20.44-56.81,2.04-17.48,1.27-35.05-1.92-52.32-14.28.08-31.12-3.44-43.29-11.22-2.44-1.56-10.73-9.87-12.16-9.87-12.66,10.67-27.57,17.8-44.12,19.91-5.06.65-10.44-.9-15.24,1.26-2.88,19.57-2.52,37.67,0,57.23,2.34,18.14,10.47,30.93-8.23,44.04-21.13,14.83-72.83,22.13-98.4,20.58s-60.24-12.52-50-44.98c9.31-29.54,66.67-46.76,94.49-41.01l4-54c-41,6.25-80.34-22.07-91.28-61.23-1.06-3.78-2.07-14.7-3.23-16.77-.32-.57-10.32-7.03-10.97-7.03-2.14,0-9.57,7.18-12.19,8.84-13.23,8.4-30.81,13.29-46.32,11.18.97,19.03,5.8,37.65-11.53,50.97-8.43,6.48-18,8.5-28.26,5.3-30.67-9.56-21.27-44.76-27.45-69.05-33.26-14.35-50.12-56.84-30.97-88.92,5.54-9.29,13.09-13.7,22.09-18.96l-12.96-128.85c4.51-18.89,9.15-37.87,14.55-56.51,1.18-4.09,6.13-23.29,8.5-24.52,3.07-1.59,5.28.67,6.84,3.21,12.52,31.51,35.53,59.79,36.17,94.84l12.05,134.46c14.93.39,24.93,12.52,26.85,26.65.4,2.96-.26,6.12.1,8.91.15,1.17-.41,2,1.47,1.45,2.38-.69,11.25-6.56,11.3-9.24.06-3.66-2.51-10.61-2.8-15.19-.28-4.32,1.5-14.85,1.11-16.85-.07-.36-4.16-3.14-5.48-4.78-16.04-19.83-16.04-52.38-8.87-75.7.85-2.77,6.33-14.89,6.31-15.77-.05-2.14-2.3-1.96-3.05-3.18-2.65-4.29-2.83-18.25-1.31-23.1,1.97-6.26,8.71-5.19,10.16-7.84,1.76-3.22.73-9.15,1.3-12.7,4.7-29.34,20.19-54.56,44.75-71.25,2.62-1.78,13.06-6.71,13.89-7.61s2.94-9.02,4.07-11.43c11.22-24.04,36.9-43.04,62.34-49.66,6.25-1.63,19.35-2.19,23.81-4.19,1.66-.75,6.27-6.44,8.7-8.3,25.94-19.94,70.41-23.81,97.9-5.14,8.95-4.02,16.3-8.9,26.2-10.76,24.58-4.61,53.17,1.21,73.14,16.31,2.41,1.82,6.75,7.56,8.8,8.2,5.78,1.81,15.61,1.76,22.49,3.51,23.95,6.08,47.88,23.68,59.17,45.83,1.76,3.45,4.77,13.57,6.67,15.33,3.13,2.91,14,7.51,18.87,11.13,18.75,13.95,34.73,37.99,38.83,61.17.62,3.48,1.1,19.47,1.7,20.3,1.01,1.41,8.3.95,10.11,6.89.82,2.68.98,17.63.43,20.53-.59,3.09-4.32,3.57-4.01,6.95.09,1,4.2,8.6,5.05,11.05,8.41,24.34,9.08,56.73-6.58,78.45-1.37,1.91-5.92,5.23-6.28,6.76-.47,2.03,1.17,14.52.88,18.84-.8,11.97-6.29,26.37-12.24,36.76-4.02,7.04-10.61,9.15-1.74,15.13,7.1,4.79,15.91,3.9,23.93,2.56Z"/>
    <g id="Right_Foot" data-name="Right Foot">
      <path class="cls-6" d="M325,614c.48,11.28,2.57,21.9,4,33-5.1,10.15-18.46,16.25-29.32,19.43l-23.34,5.22-2.1,2.01c-17.82,1.72-35.71,2.17-53.68,1.35-7.77-1.24-21-4.31-23.55-12.01,3.56-21.81,48.79-34.44,60-36s15.34-.64,22,0,18,4.04,26.98,6.51c-2.87-4.49-7.78-7.16-12-10.21-.14-10.77.38-21.57,1.02-32.3,4.13-3.88,12.74,1.7,16.86,4.74,6.02,4.45,11.89,10.71,13.14,18.26Z"/>
      <path class="cls-3" d="M274.7,670.03c17.31-4.98,29.18-3.65,45.23-15.6,3.08-2.29,5.64-5.95,9.07-7.43,2.04,15.81-2.15,19.27-16.48,25.02-25.96,10.43-80.44,19.33-105.9,6.85-4.68-2.29-9.57-6.15-10.45-11.66-.47-2.92.64-3.08.82-4.21,18.71,15.27,43.41,10.35,65.5,9.19"/>
      <path class="cls-3" d="M295,591c.53-9.02,1.33-17.99,2.01-27,.54-.65,9.69,5.44,11.31,6.18,5.64,2.59,11.71,3.96,17.55,5.96-.22,12.61-1.4,25.22-.86,37.86-6.59-10.77-16.68-21.98-30-23Z"/>
    </g>
    <path id="Right_Arm" data-name="Right Arm" class="cls-3" d="M153.98,440c2.47,7.48,6.65,14.8,11.52,21.02.75,1.04.72,1.92.03,2.99-2.05,3.19-17.59,11.06-21.74,12.29-4.44,1.31-23.87,4.43-26.87,2.27-1.28-.92-2.41-11.62-1.44-13.58.68-1.37,6.52-4.7,8.15-6.34,1.93-1.94,5.56-8.54,6.64-9.35,1.56-1.16,7.27-1.47,9.99-2.51,4.82-1.85,8.82-5.2,13.71-6.78Z"/>
    <g id="Right_Hand" data-name="Right Hand">
      <path class="cls-4" d="M84,389c12.68,13.6,7.57,40.16-10.74,46.65-11.3,1.28-12.51,4.42-3.63,9.43-2.55,21.81-30.72,5.88-38.62-4.08-13.56-33.4,7.64-62.9,44.26-56.76,4.52.76,5.81,2.98,8.74,4.76Z"/>
      <path class="cls-3" d="M84,389c5.48,3.34,7.96,3.59,11.02,10.48,10.39,23.35-7.81,41.18-31.02,40.02,4.9,7.01,23.89,3.77,27.57,6.43,1.84,1.32,3.65,7.3,3.51,9.58-.43,6.91-12.64,13.34-18.85,14.23-22.76,3.29-37.2-8.94-45.24-28.74.94-2.46,2.66.36,3.49,1.01,4.27,3.36,9.15,7.83,14.26,9.74,7.12,2.66,19.11,4.5,19.09-6.01l-8.84-9.73c27.93.34,36.2-24.26,24.99-47.01Z"/>
      <path class="cls-3" d="M106.01,454c1.91-3.75-4.22-13.43-3.84-15.35.15-.75,5.36-7.27,6.34-9.65,2.6-6.32,1.68-10.57,2.5-16.52.51-3.69,3.67-.33,5.03.99,10.52,10.23,4.66,35.99-10.02,40.52Z"/>
    </g>
    <g id="Right_Brain" data-name="Right Brain">
      <path class="cls-4" d="M391,170l-2.97-.44c-5.55-6.52-13.37-10.61-21.67-12.27,15.61,9.28,25.82,25.65,27.64,43.71.47,13.64-2.8,24.49-3,36-.91,6.52-6.69,11.44-11.64,15.5-7.84,6.43-20.14,14.43-30.36,10.5-2.33-.01-3.85-.52-6-1-5.75-3.16-7.54-11.61-8.49-17.87-1.93-12.74.96-26.75,9.15-36.7-13.97,10.42-20.92,28.04-19,45.27l-1.66,3.3c-15.72-3.16-34.93-4.53-51-5-6.62-.94-13.38-.9-20,0-31.43.49-61.34,4.48-92,11-.78-25.51,12.18-49.99,31.53-65.97,2.81-2.32,12.96-9.47,15.96-10.05,2.72-.53,1.22,5.3,1.59,7.43s1.27,4.53,1.92,6.58l.14,2.18c-8.02,6.65-11.64,17.91-11.82,28.17l-2.32,6.65c-.44,4.08-3.12,7.92-1.5,12,8.14-13.51,22.04-22.72,38.02-23.98s34.41,8.33,47,17.96c.45-.73-.3-1.99-.51-2.98-15.02-25.7,2.83-42.74,29.56-35.75-16.11-13.79-45.12-7.02-42.81,17.49l-1.76,2.26c-2.84-2.12-13.85-8.12-17-9l-2.34-1.2c-2.68-7.62-4.79-15.52-4.32-23.66-2.44-.3-11.62,15.45-12.78,18.38l-2.55.48c-3.09-4.22-4.22-5.43-5.54-10.96-10.53-44.11,29.7-71.63,68.54-76.03-1.8,4.59-.93,11.17,0,15.99l-1.49,2.2c-11.44,1.53-22.03,8.96-22.68,21.25l-1.83,4.55c-1.29,1.77-3.62,6.03-4.44,8.06-.4.98-1.52,3.07.43,2.93,1.2-6.04,11.81-12.81,17.32-15.19,19.04-8.23,35.56-3.4,49.03,11.32,1.68,1.84,2.7,4.64,4.65,5.87.44-6.3-4.36-15.31-8.48-20-.84-.96-6.92-6.67-7.51-6.99-2.5-3.2.33-12.23,2.63-15.65,6.74-10.05,19.75-14.43,31.36-15.36-18.57-9.69-37.73,7.16-43.44,24.72-1.57,1.6-2.63,1.39-3.55-.71-10.4-37.11,35.18-50.73,63.49-47.99,41,3.96,30.47,44.72,26.51,72.99Z"/>
      <path class="cls-3" d="M165,433c1.84-1.55,2.28-.11,3.5.97,14.51,12.8,28.18,19.79,48.01,21.02,2.96.18,7.62.87,9.41-1.57s1.4-7.65,4.08-9.41c.99,35.86,41.65,58.26,73.98,47.47,4.76-1.59,9-5.67,14.03-6.47l3.45,1.3c18.09,22.95,48.54,30.1,76.51,29.77l3.03,1.94c-.11.62.16,1.5,0,2-15.65,48.08-78.34,54.58-107.98,16.48-4.59-5.9-6.93-12.44-11.02-18.48-1.06,5.73-.7,12.11,0,18,.53,1.34,3.53,3.35,1.58,6.07-.62.87-8.27,1.84-10.04,1.97-33.82,2.43-60.35-21.59-68.54-53.04-.89-3.09,1.77-4.43,8-4,1.33.04,2.67,0,4,0,2.22.77,4.55.77,7,0,1.14-.38,7.72-2.7,7.97-3.04.71-1.01-1.87-6.81-2.95-7.47s-18.8-2.44-23.23-3.77c-18.68-5.62-33.84-21.92-40.78-39.72Z"/>
      <polyline class="cls-6" points="318 485 342.69 509.45 408.36 522.55 410.87 456.15 400 434"/>
      <path class="cls-6" d="M318,485c-1.12,2.61-8.3,6.49-11.35,7.55-32.62,11.35-69.7-6.1-77.93-40.45-2.27,7.37-14.28,5.18-20.43,4.01-17.52-3.33-31.6-10.84-43.28-23.11-3.52-9.01-5.86-19.65-4.88-29.38.29-2.84,3.1-10.48,2.73-11.92-.43-1.7-8-7.95-9.83-10.23-7.68-9.54-10.57-19.52-12.02-31.48v-19c1.38-10.3,4.47-20.44,10.5-28.98,11.98,11.96,11.17,32.01,14.99,47.99,9.87,41.33,29.66,66.27,73.13,72.87,39.87,6.05,93.81,2.55,118.38-33.88l1.93-1.07c9.96-14.82,20.48-29.29,31.56-43.4l3.51-.52c.77,8.4,2.15,17.1,5,25l1.59,1.84c-.77,17.51-.37,35.13,1.18,52.87.74,5.07-.18,8.5-2.77,10.29"/>
      <path class="cls-4" d="M183,337l3.32-.28c7.16,4.19,15.28,6.53,23.54,7.14-24.63-16.5-19.49-60.99,11.14-67.86,31.26-5.73,65.9-4.46,97.23,1.27,37.21,6.81,47.58,17.11,41.61,56.06-9.02,58.86-38.9,77.86-97.38,74.71-52.84-2.85-71.17-18.69-79.46-71.04Z"/>
      <path class="cls-3" d="M391,237c-.13,7.66,2.54,16.66,2.99,24.51.37,6.46-.25,13.03,0,19.49h-15.5c-3.32,0-11.6-8.65-15.18-10.82-4.63-2.82-10.07-3.93-14.32-7.18,16.74.1,32.79-13.01,42-26Z"/>
      <path class="cls-3" d="M221,276c-8.97,5.22-17.69,10.57-21.79,20.71-5.45,13.48-3.05,35.24,9.46,44.11,3.34,2.37,6.64,2.65,9.32,5.17-12.25.6-24.77-2.19-35-8.99-6.25-39.48-2.26-53.62,38-61Z"/>
      <path class="cls-3" d="M301,145c2.71.19,2.47-1.59,3.3-3.2,2.19-4.25,3.68-8.46,6.72-12.27,9.12-11.45,31.29-20.14,41.98-6.53-12.07-.84-30.41,4.81-35.89,16.62-1.96,4.23-1.44,8.35-3.11,12.39-2.18-1.2-10.37-2.31-12.03-3.49-1.4-1-.68-2.48-.97-3.51Z"/>
      <path class="cls-3" d="M343,262c-6.25-1.39-13.8-4.75-20-6-3.18-24.75,6.72-43.24,27.51-55.98-2.66,6.76-8.33,11.07-11,17.99-5.76,14.97-4.51,30.26,3.49,43.99Z"/>
      <path class="cls-3" d="M265,224c-4.5-31.63,35.06-37.57,51-16.01-12.71-4.1-37.22-6.96-39.05,11.46-.82,8.31,1.45,13.01,3.05,20.55-2.82-3.07-5.5-7.15-8.47-10.04-1.33-1.3-5.32-5.06-6.53-5.96Z"/>
      <path class="cls-3" d="M358,389c7.48-11.09,13.81-28.11,17.51-40.99,3.28-11.42,2.2-30.05,18.49-31.01.52,8.67.22,18.46,1,27-12.66,11.1-19.52,27.74-30.02,40.48-1.16,1.41-4.85,6.36-6.98,4.52Z"/>
      <path class="cls-3" d="M248,215c-5.83-1.62-13.72.12-18.29-1.21-2.91-.85-2.75-3.48-3.71-4.79,4.81-8.55,8.9-18.94,18.51-22.98-3.18,10.07.73,19.34,3.49,28.98Z"/>
      <path class="cls-3" d="M391,170c-1.1,7.85,2.66,21.28,3,31-5.53-21.46-18.13-40.22-39.99-47.01-.23-1.88,1.98-.69,3.03-.53,13.94,2.11,24.81,4.96,33.96,16.55Z"/>
      <path class="cls-6" d="M211,200c.94,2.96,2.16,6.07,3.8,8.7,1.17,1.86,6.06,6.05,5.19,7.29-10.3,3.33-17.86,11.84-23,21.01.7-6.5-.07-11.71,1.94-18.56,1.63-5.54,6.58-16.03,12.06-18.44Z"/>
      <path class="cls-6" d="M289,138c.36,1.9,4.24,7.88,2.59,10.06-10.52,1.97-22.32,9.3-28.59,17.94-1.9-16.5,10.77-26.48,26-28Z"/>
    </g>
    <g id="Left_Foot" data-name="Left Foot">
      <path class="cls-1" d="M504,592c1.16,10.07,2.36,20.16,2.04,30.33l-8.98,5.23-5.06,4.43c27.69-9.99,59-6.37,85.2,6.3,10.45,5.05,21.93,13.76,23.79,25.71-.39.72-.81,1.42-1.34,2.02-3.22,3.69-19.79,6.97-25.61,7.99-30.92,5.4-62.4.71-91.65-9.29-5.65-1.93-14.21-5.67-13.4-12.72.95-10.81,3.49-21.17,4-32,1.17-10.39,8.7-20.36,17.64-25.6,3.61-2.12,10.19-5.74,13.36-2.4Z"/>
      <path class="cls-7" d="M601,664c.08.54,1.26.91.86,3.2-.31,1.78-2.16,4.36-3.34,5.83-18.22,22.54-91.44,10.07-115.2-.84-7.33-3.36-14.41-8.15-15.15-17.03-.19-2.25.8-2.8.83-3.15,2.48,6.96,11.79,10.13,18.22,12.28,34.98,11.75,79.57,14.75,113.78-.28Z"/>
      <path class="cls-7" d="M473,620c.69-14.72-.34-29.44-1.58-44.06,4.77-1.8,9.81-2.56,14.57-4.46,5.01-2,9.1-5.42,14.01-7.48,1,9.36,2.93,18.64,4.01,28-15.62,1.58-25.28,14.62-31,28Z"/>
    </g>
    <g id="Left_Arm" data-name="Left Arm">
      <path class="cls-1" d="M757,399c8.31,33.44-6.37,84.27-46.84,85.87-13.43.53-29.77-6.45-29.16-21.87.39-1.98-.12-3.06,1.13-5.37,4.78-8.88,20.71-15.3,29.87-18.13-1.15-1.68-2.72-1.42-4.44-1.55-12.96-1.02-25.58,5.18-34.54,14.05-6.6-10.2-4.73-23.85,1.74-33.75,8.6-13.15,34.5-18.02,49.24-18.26.25-1.49-1.87-1.24-2.98-1.49-13.29-3.05-27.64-2.29-40.01,3.5-4.51-30.62,23.12-36.7,47.27-27.77,12.05,4.45,22.21,14.01,28.73,24.77Z"/>
      <path class="cls-7" d="M757,399c25.71,42.5-2.36,100.23-46.48,117.02-28.81,10.97-66.44,6.32-89.99-14.05-2.28-1.97-9.83-9.26-10.33-11.7-.25-1.25,1.19-9.12,2.05-10.02.59-.62,13.58-8.96,14.43-9.09,1.51-.23,9.93,6.76,12.32,7.84l.62,2.36c-15.97,24.33,22.85,35.71,37.63,18.63h2.75c11.97,7.82,27.1,6.21,37-4h-15.5c-2.82,0-11.07-4.51-13.43-6.57-8.4-7.36-9.08-16.27-7.07-26.43,5.21,20.82,28.73,24.01,46.04,15.54,19.74-9.66,28.46-33.27,29.95-54.05.6-8.43-.68-17.11.01-25.49Z"/>
      <path class="cls-1" d="M639,479c9.14,4.16,19.61,4.56,28.99,1,.55,6.32,6.88,16.65,12.01,20-10.65,11.97-29.5,14.31-41.52,3.02-7.21-6.77-5.73-17.05.52-24.02Z"/>
    </g>
    <g id="Left_Brain" data-name="Left Brain">
      <path class="cls-1" d="M400,434c3.01-15.99-4-51.33,0-65,3.65-12.47,5.07-17.02,6-31,.28-.73.78-1.79,1.34-1.73,4.04.44,12.91,2.33,14.66,5.73,12.92,52.2,37.34,79.64,92.46,82.04,26.23,1.14,66.44.57,87.54-17.04,4.06,4.72,1.72,16.2.23,22.5-.95,4.02-2.17,7.92-3.88,11.68-5.06,11.14-25.47,32.71-28.4,9.49-4.5,34.01-39.59,50.33-70.99,43.86,7.11,3.49,10.07,7.37,8.88,11.63-16.59,37.39-61.65,47.07-96.33,29.17l-5.51-1.34c-2.18-4.44-3.45-9.33-5-14-2.64-.18-2.43-1.07,0-2"/>
      <path class="cls-1" d="M500,147l-2.54-1.67c-5.84-20.27-26.49-31.4-46.47-24.23,12.7.87,26.2,3.49,33.64,15.34,2.83,4.51,6.58,13.67,2.37,17.56-1.33.92-8.56,8.95-9.83,10.67-2.57,3.49-4.95,8.14-6.16,12.33,12.45-14.44,29.81-22.21,48.67-15.18s18.36,29.13,16.33,45.18c1.52-.56,2.7-3.52,3.5-4.98,13.84-25.28-4.11-50.04-30.51-54.03,4.04-7.65,4.32-17.6,3-25.98,28.21,1.8,58.27,19.08,67,46.99,2.86,18.35-8.54,39.46-26,46-1.37,2.29-4.08,3.66-8.13,4.12-3.83,2.17-7.12,2.79-9.87,1.88l-2.36-1.62c-4.86-24.05-31.06-31.14-48.21-14.2,12.06-2.88,28.89-5.34,37.02,6.41,2.75,3.97,6.07,12.58,2.55,16.41l.59,2.2-7.27,8.81c26.97-17.89,63.22-22.04,84.51,6.27-2.9-11.61-11.57-21.08-22.57-25.65l-1.26-2.63c-2.93-2.12.22-5.93,3-4,8.72-9.91,9.09-12.93,12.02-25.5.22-.95-.59-2.09,1.45-1.48,3.83,1.14,13.62,8.18,17,11.01,9.22,7.71,15.19,16.47,20.53,26.97,1.6,6.62-.1,28.45-4.22,33.06-.65.72-1.78.84-2.78.94-44.85-8.56-101.21-10.55-146-2l-1.7-2.92c1.26-12.18-2.7-23.75-11.42-32.37,3.23,12.77,4.89,29.64-4.88,39.29-4.27,1.16-10.06,2.47-14,4-10.32.47-20.95-6.13-28.88-12.5-2.71-2.17-6.75-6.07-6.12-9.5-8.31-13.72-6.05-39.95-3-55,5.64-12.62,15.06-23.76,27.04-30.89-9.67,2.62-18.84,8.46-24.2,17.03-1.17.3-2.12-.41-2.84-2.14-2.54-14.61-5.55-44.67.82-57.68,16.07-32.79,108.88-15.64,90.18,33.68Z"/>
      <path class="cls-7" d="M602,407c11.89-9.93,23.06-29.09,27.72-43.78,3.7-11.65,8.23-54.14,18.29-58.73,3.47-1.59,4.91,2.85,6.36,5.64,10.32,19.86,8.09,50.17-3.95,68.79-2.03,3.14-12.04,12.82-12.22,13.72-.3,1.55,2.38,6.46,2.72,8.95,3.5,26.02-12.64,54.97-35.05,67.78-10.99,6.28-23.29,8.7-35.86,9.64-.48,2.31.27,1.6,1.28,2.25,1.55.99,9.74,3.75,11.22,3.75h14.5c-5.28,24.31-19.47,45.99-43.31,55.19-1.51.58-11.52,3.81-12.19,3.81h-24c-.37,0-1.52-1.3-2.51-1.01,2.61-7.64,4.29-14.92,1.99-22.98l-11.02,17.46c-22.47,30.74-82.32,32.55-99.97-3.47,1.29-1.86.53-2.22,2.98-1.55,7.84,2.15,15.24,6.71,23.78,8.29,27.16,5.04,53.86-3.88,69.05-27.44,1.45-2.24,6.28-9.97,4.21-11.79-5.83-2.36-10.11-6.85-14.01-11.5,34.93,13.12,78.85-8.17,76-49l4.02,9.46c2.18,5.7-.08,10.84,7.92,7.99,1.36-.48,9.27-7.13,10.49-8.51,9.57-10.89,12.45-28.93,11.56-42.94Z"/>
      <path class="cls-1" d="M560,274c.8.75,1.61,1.31,2.87,1.49,12.76,1.79,20.5,3.56,30.11,13.43,14.33,14.71,13.41,38.97,1.08,54.52,7.39-2.4,14.59-5.04,21.61-7.92l.32,2.48c-7.39,47.59-23.53,66.82-73.51,69.99-53.66,3.41-92.07-9.17-102.35-66.63-3.44-19.21-7.06-46.87,14.33-56.39,28.63-12.74,74.83-13.93,105.53-10.97Z"/>
      <path class="cls-7" d="M562,274c1.01.73,1.97.71,3,0,47.15,5.64,58.5,15.73,51,64-.35-1.71-3.06.23-3.86.64-6.95,3.48-14.24,6.83-22.13,7.36-.66-.58,6.59-9.45,7.4-11.09,3.73-7.55,4.41-17.06,3.59-25.39-1.85-18.62-20.66-30.27-37.56-33.49-1.84-.35-4.01,1.17-3.43-2.02.66.06,1.35-.07,2,0Z"/>
      <path class="cls-7" d="M447,264c-3.39,1.31-9.79,4.59-12.92,6.58-6.34,4.04-8.3,9.47-16.58,10.42-3.33.38-7.1-.27-10.5,0v-21.5c0-1.69,1.68-8.57,2.27-10.72.66-2.36,2.49-4.26,2.73-6.78.33.54,6.52,7.15,7.47,8.03,8.27,7.66,17.41,9.88,27.53,13.97Z"/>
      <path class="cls-7" d="M581,213c-1.08,1.23-2.72,1.85-3,4-3.75.83-7.93.62-12.53-.63-4.79.58-8.95.12-12.47-1.37,10.65-7.45,20.23-18.13,23.52-30.98,1.32-5.14.95-10.17,2.48-15.02,2,6.39,3.16,12.82,4.03,19.46l-2.03,24.54Z"/>
      <path class="cls-7" d="M479,256c-6.07,1.16-12.04,2.38-18,4,.95-5.85,4.48-9.15,5.04-15.46.95-10.66-.59-20.7-4.55-30.52,13.82,11.25,19.81,23.78,17.51,41.98Z"/>
      <path class="cls-7" d="M632,224c6.19,12.17,9.1,24.2,9,38-1.25,1.26-13.72-3.57-16-4,5.99-10.21,4.68-22.83,7-34Z"/>
      <path class="cls-7" d="M422,342l-16-4c.44-6.63-.37-13.37,1-20,14.54-.2,12.57,14.19,15,24Z"/>
      <path class="cls-7" d="M409,171c2.94,2.09,1.48.31,2.45-1,6.72-8.98,18-15.34,29.16-16.89,1.21-.17,5.91-1.2,5.4,1.38-16.93,3.7-26.92,19.82-37.01,32.51.57-2.83,2.67-7.36,2.77-8.67.15-1.88-2.4-5.17-2.77-7.33Z"/>
      <path class="cls-7" d="M535,221c-2.1,1.08-9.34,5.61-11,7-.53-11.8-4.81-21.34-17.61-22.89-5.72-.69-26.4,3.3-22.45,2.37s-2.31.31-4.94,2.51c1.78-5.01,4.74-7.63,9.08-10.41,20.9-13.39,42.84-2.23,46.92,21.42Z"/>
      <path class="cls-5" d="M578,217c15.12,5.43,25.84,18.8,27,34.99l-9.96-11.53c-18.32-16.89-39.7-16.87-61.71-7.65-7.41,3.1-14.04,7.84-21.31,11.18-.65-.63,6.11-9.43,7.02-10.46,1.25-1.41,3.81-4.56,4.97-5.53.32-3.64,8.07-9.39,11-7,5.03-2.6,12.43-5.09,18-6,8.5-1.39,16.81-.94,25,2Z"/>
      <path class="cls-7" d="M500,147c-.21.55.48,1.31-.61,2.08-2.15,1.51-9.92,3.21-12.39,4.92.72-15.78-9.2-25.96-23.97-29.53l-20.03-1.97c23.93-13.28,50.37-1.79,57,24.5Z"/>
    </g>
    <g id="Pencil">
      <path class="cls-1" d="M78,247c-.38,1.33-1.38,2.01-2.99,2.04l9.88,122.57-1.89,1.38c-9.42-2.98-18.21-3.49-27.96-2.05-4.96-38.87-7.54-78.13-12.97-116.85,2.7-.91,5.26-2.06,5.93-5.1,1.22-1.41,3.27-2.28,6.15-2.63,4.41-4.92,6.35-6.9,12.42-2.48l-6.26-33.09,1.69-1.81c2.43-.07,4.54-2.48,7.06.45,1.5,1.74,9.33,20.3,10.42,23.57,2.2,6.58,1.86,7.93-1.48,13.98Z"/>
      <path class="cls-7" d="M78,247c.29.1,4.8,3.27,5.02,3.48,1.61,1.55,1.61,17.35,1.99,21.01,1.14,11.02,1.97,22.02,3,33,2.34,24.81,5.71,49.66,6.98,74.51-3.67-2.54-7.72-4.65-11.99-6l-10.04-124.49c-.9-2.24,4.26-1.77,5.04-1.51Z"/>
      <path class="cls-2" d="M62,209l7,36.99c-2.9,1.45-6.95-3.14-8.35-2.9-2.9.5-3.52,7.65-12.64,5.9-1.22-.23-4.44-2.39-5.07-3.43-3.65-6.07,5.82-27.14,6.05-34.87.88-2.18,10.66-1.63,13.02-1.7Z"/>
      <path class="cls-1" d="M65,491c.09-.78.36-1.96.91-2,3.34-.23,27.56-.2,28.77.58,2.28,1.47,4.26,22.26,3.4,25.24l-2.08,1.17c-4.45.83-25.35,2.18-27.77-.23-1.13-1.13-2.84-21.21-3.23-24.77Z"/>
      <path class="cls-7" d="M65,491c-.26-2.37-.66-4.64-1-6.99,14.72,1.28,28.95-4.69,39.99-14.01l4.05,41.33c-.37,1.49-10.17,4.32-12.04,4.67.54-3.16-1.06-24.19-2.14-24.86l-28.86-.14Z"/>
      <path class="cls-1" d="M96,523c3.45.53,3.84,10.67,2,13-.49.32-.85,1.56-2.25,2.2-9.7,4.39-19.52.04-24.58-8.86-.97-1.7-3.59-6-.68-6.34,7.91-.93,17.69,1.01,25.52,0Z"/>
      <path class="cls-7" d="M96,523c1.85-.24,10.88-4.12,11.99-2.99-.24,8.32-3.7,11.9-9.99,15.99-1.74-3.51-1.01-8.83-2-13Z"/>
    </g>
    <g id="Mouth">
      <path class="cls-5" d="M379,435c6.96-.76,14.06-.76,21,0,29.32-.32,53.12-4.3,81.64-7.86,9.88-1.23,23.49-4.78,24.39,9.36.21,3.29-5.24-1.82-7.56,1.47-.57.81-3.4,14.59-4.42,17.58-14.92,43.82-48.29,61.13-93.04,62.46-30.49.91-64.4-6.71-83-33-4.42-6.25-10.06-19.35-12.75-26.75-1.6-4.41-4.91-19.59-6.32-21.67-3.13-4.64-9.96-.53-13.91-.06,2.72-7.63,5.64-11.95,14.44-11.52,13.53.67,31.6,6.26,46.16,7.88,10.83,1.2,22.46,1.8,33.37,2.13Z"/>
      <path class="cls-2" d="M481,439.01c-1.4,4.49-1.61,16.47-5.07,19.42-13.98,6.92-28.26,13.19-43.92,14.59l3.36,1.94,32.64-3.95c1.58,1.38-11.52,17.2-13.53,18.96-21.56,18.93-75.84,19.85-100.82,7.89-10.82-5.18-18.39-14.97-24.65-24.84,23.73,3.32,47.47,4.98,71.51,3.99,1.22-.05,3.72.76,3.48-.99-24.15-2.33-48.98-3.04-71.95-11.55-2.85-1.05-9.64-3.5-11.49-5.51-2.01-2.18-7.63-20.04-5.04-19.96,53.99,12.09,111.29,9.81,165.48.02Z"/>
    </g>
    <g id="Eyes">
      <g id="Whites">
        <path class="cls-2" d="M519,397c-19.16,5.38-43.02-4.07-54.41-20.09-13.77-19.38-12.92-38.44-5.59-59.91,14.54-32.4,60.03-38.79,84.27-13.48,27.68,28.91,18.18,86.47-24.27,93.48Z"/>
        <path class="cls-5" d="M519,397c25.63-7.19,40.42-32.33,37.72-58.22-5.66-54.5-69.5-65.7-97.72-21.78,6.61-19.37,19.42-37.22,41.75-39.75,76.22-8.62,89.16,108.88,23.05,120.13-1.77.3-3.17.95-4.81-.39Z"/>
        <path class="cls-2" d="M341,318c14.8,45.64-8.68,82.07-58,80-48.39-6.81-56.77-72.74-21.51-101.04,25.25-20.27,68.46-10.16,79.51,21.04Z"/>
        <path class="cls-5" d="M341,318c-16.88-33.29-65.31-41.31-87.82-9.32-22.96,32.64-10.28,79.46,29.82,89.32-74.85-3.14-61.53-127.8,12.48-121.99,25.32,1.99,38.39,20.03,45.52,41.99Z"/>
      </g>
      <g id="Pupils">
        <path class="cls-5" d="M512.64,376.64c-9.11,8.98-22.83,9.94-33.14,2.35-20.99-15.45-16.96-62.82,11.95-65.04,31.62-2.42,40.68,43.46,21.19,62.68Z"/>
        <path class="cls-5" d="M306.79,313.2c34.12-2.73,40.92,57.38,11.21,69.29-42.17,16.91-53.73-65.89-11.21-69.29Z"/>
        <path class="cls-2" d="M503.74,328.17c8.19-1.18,12.3,12.25,3.61,16.7-10.99,5.64-15.01-15.06-3.61-16.7Z"/>
        <path class="cls-2" d="M316.74,328.18c10.9-2.27,12.87,14.39,5.57,16.63-12.88,3.95-14.48-14.77-5.57-16.63Z"/>
      </g>
    </g>
  </g>
</svg>